<?xml version="1.0" encoding="utf-8"?>
<!-- Generator: Adobe Illustrator 16.0.0, SVG Export Plug-In . SVG Version: 6.00 Build 0)  -->
<!DOCTYPE svg PUBLIC "-//W3C//DTD SVG 1.1//EN" "http://www.w3.org/Graphics/SVG/1.1/DTD/svg11.dtd">
<svg version="1.1" id="Ebene_1" xmlns:ev="http://www.w3.org/2001/xml-events"
	 xmlns="http://www.w3.org/2000/svg" xmlns:xlink="http://www.w3.org/1999/xlink" x="0px" y="0px" width="15.002px"
	 height="19.002px" viewBox="809.999 304.999 15.002 19.002" enable-background="new 809.999 304.999 15.002 19.002"
	 xml:space="preserve">
<path fill="#FFFCF5" d="M824.736,322.866c-0.152,0.192-0.452,0.341-0.452,0.341h-1.054h-1.675h-2.204c0-0.518,1.314-0.62,1.314-0.62
	c0-0.081,0.005-0.208,0.014-0.208h0.016c0,0-0.003-0.152,0.056-0.339c0.002-0.005,0.003-0.024,0.005-0.03
	c0.003-0.009,0.007-0.025,0.011-0.035c0.034-0.097,0.077-0.191,0.126-0.274c0.201-0.341,0.608-0.746,1.431-0.999l-0.129-0.235
	c0,0-0.941,0.206-1.441,0.901l-0.284-0.98l-0.701,2.175c-0.001,0-0.003,0-0.003,0c-0.009,0-0.683,0.192-0.683,0.644h-0.424
	c0,0,0.081-0.32,0.389-0.437l1.192-5.865c-0.42-0.536-1.131-0.957-1.131-0.957l-0.271-0.961l2.039-0.077l0.132-0.737l1.981,4.841
	l1.067,3.37c0.195-0.094,0.557-0.324,0.917-0.842C824.974,321.542,825.118,322.386,824.736,322.866z M823.204,311.369h-1.312
	l-1.346,3.369l-1.717,0.065c-0.055,0.002-0.107,0.03-0.139,0.076c-0.032,0.045-0.043,0.104-0.027,0.159l0.271,0.96
	c0.014,0.046,0.044,0.084,0.083,0.108c0.004,0.003,0.217,0.129,0.472,0.327l-0.486,0.496v4.217c0,0.425-0.34,0.773-0.76,0.773
	s-0.757-0.348-0.757-0.773v-4.537h-3.049l-0.686,1.064l0.643,1.143c-0.291,0.065-0.517,0.144-0.732,0.253
	c-0.234,0.121-0.443,0.278-0.628,0.47l-0.649-1.137v-1.344l-0.859,1.178v2.854c0,0.429-0.342,0.773-0.762,0.773
	c-0.416,0-0.757-0.344-0.757-0.773l-0.003-3.023l0.709-1.15v-1.368l-0.551,0.878c-0.012,0.033-0.044,0.053-0.079,0.053
	c-0.044,0-0.084-0.036-0.084-0.084v-3.048c0.028-0.599,0.52-1.097,1.11-1.097h7.462l1.185-1.862l-0.982-0.999
	c-0.032-0.028-0.052-0.069-0.052-0.114c0-0.089,0.067-0.157,0.15-0.157l0.717,0.004c-0.178-0.381-0.281-0.806-0.281-1.255
	c0-1.583,1.262-2.87,2.814-2.87c0.202,0,0.364,0.166,0.364,0.372c0,0.203-0.162,0.377-0.364,0.377c-1.062,0-1.942,0.817-2.062,1.87
	c0.147-0.085,0.313-0.13,0.495-0.13h1.503c0.198,0,0.361,0.166,0.361,0.368c0,0.207-0.163,0.373-0.361,0.373h-1.486
	c-0.096,0-0.189,0.032-0.262,0.105c-0.11,0.117-0.139,0.283-0.074,0.421c0.055,0.121,0.131,0.247,0.214,0.352l0.855-0.004
	c0.063,0.004,0.135,0.02,0.194,0.052l2.013,1.101c0.166,0.106,0.281,0.296,0.281,0.51
	C823.794,311.102,823.529,311.369,823.204,311.369z M814.852,308.807c0.3,0,1.412-0.088,1.412-0.088
	c-0.268,0.907-0.867,1.146-1.425,1.146c-0.619,0-1.186-0.295-1.186-0.295l0.486-0.131c0,0-0.635-0.026-0.841-0.091
	c-0.995-0.321-1.108-1.117-1.108-1.117s-0.019-0.371-0.757-0.542c0.074-0.058,0.638-0.375,0.905-0.375
	c0.017,0,0.031,0.002,0.045,0.004c0.258,0.038,0.685,0.558,0.685,0.558s0.005,0,0.013,0c0.069,0,0.41-0.013,0.571-0.268
	c0.01-0.134-0.321-0.434,0.33-0.52c0.28-0.065,1.65-0.746,1.871-1.095c0.904,2.125-1.062,2.431-1.062,2.431s-0.037,0.14-0.11,0.22
	c-0.024,0.027-0.082,0.036-0.146,0.036c-0.124,0-0.276-0.032-0.289-0.036c0.021,0.009,0.382,0.146,0.55,0.161
	C814.81,308.806,814.828,308.807,814.852,308.807z M813.12,307.758c-0.125-0.146-0.463-0.517-0.718-0.555
	c-0.02-0.004-0.041-0.005-0.063-0.005c-0.112,0-0.258,0.043-0.403,0.102c-0.1-0.477-0.901-1.523-0.901-1.633
	c1.439-0.124,2.316,1.868,2.376,1.969c0,0.02-0.008,0.037-0.019,0.053C813.291,307.74,813.182,307.755,813.12,307.758z
	 M811.068,322.766c0.463-0.196,0.664-0.328,0.928-0.611c0.204-0.217,0.215-0.243,0.348-0.759c0.103-0.395,0.149-0.555,0.213-0.728
	c0.25-0.675,0.652-1.16,1.186-1.433c0.268-0.137,0.551-0.223,0.988-0.297c0.283-0.048,0.339-0.066,0.401-0.129
	c0.056-0.057,0.079-0.13,0.077-0.24c-0.002-0.109-0.027-0.21-0.118-0.495c-0.094-0.291-0.124-0.415-0.133-0.564
	c-0.01-0.135,0.001-0.226,0.035-0.275c0.02-0.032,0.028-0.037,0.067-0.037c0.005,0,0.01,0,0.015,0c0.047,0,0.088,0.017,0.252,0.1
	c0.207,0.105,0.332,0.149,0.446,0.149c0.042,0,0.083-0.006,0.125-0.017c0.099-0.026,0.172-0.081,0.323-0.242
	c0.08-0.084,0.152-0.149,0.181-0.162c0.029-0.014,0.059-0.022,0.087-0.022c0.023,0,0.048,0.005,0.07,0.016
	c0.081,0.035,0.104,0.095,0.136,0.363c0.023,0.214,0.041,0.322,0.087,0.566c0.041,0.223,0.03,0.27-0.086,0.404
	c-0.172,0.197-0.199,0.349-0.118,0.663c0.048,0.183,0.06,0.272,0.061,0.442c0,0.293-0.054,0.411-0.326,0.716
	c-0.087,0.096-0.18,0.206-0.206,0.246c-0.194,0.278-0.282,0.616-0.282,1.076c0,0.454,0.084,0.682,0.354,0.969
	c0.061,0.066,0.12,0.136,0.13,0.157c0.029,0.057,0.024,0.14-0.012,0.214c-0.042,0.081-0.075,0.105-0.148,0.106
	c-0.002,0-0.004,0-0.006,0c-0.218,0-0.603-0.378-0.731-0.72c-0.027-0.067-0.039-0.13-0.051-0.238
	c-0.019-0.179-0.03-0.224-0.076-0.277c-0.056-0.065-0.116-0.09-0.224-0.096c-0.021-0.001-0.039-0.003-0.053-0.003
	c-0.042,0-0.058,0.008-0.093,0.028c-0.104,0.063-0.286,0.315-0.419,0.58c-0.074,0.15-0.119,0.257-0.108,0.267
	c0.002,0.003,0.076,0.01,0.162,0.015c0.304,0.018,0.362,0.063,0.372,0.291l0.004,0.088l-1.121,0.003l-1.119,0.003l-0.055-0.047
	c-0.081-0.07-0.155-0.103-0.251-0.103c-0.085,0-0.188,0.026-0.327,0.078c-0.118,0.045-0.643,0.259-0.731,0.3
	c-0.188,0.085-0.345,0.211-0.379,0.304c-0.044,0.117-0.005,0.211,0.161,0.39c0.066,0.071,0.119,0.137,0.119,0.146
	c0,0.032-0.039,0.05-0.097,0.05c-0.029,0-0.062-0.004-0.097-0.013c-0.041-0.011-0.118-0.044-0.172-0.072
	c-0.258-0.135-0.379-0.315-0.362-0.536c0.015-0.183,0.054-0.279,0.156-0.38C810.727,322.925,810.83,322.867,811.068,322.766z"/>
</svg>
