<?xml version="1.0" encoding="utf-8"?>
<!-- Generator: Adobe Illustrator 16.0.0, SVG Export Plug-In . SVG Version: 6.00 Build 0)  -->
<!DOCTYPE svg PUBLIC "-//W3C//DTD SVG 1.1//EN" "http://www.w3.org/Graphics/SVG/1.1/DTD/svg11.dtd">
<svg version="1.1" id="Ebene_1" xmlns:ev="http://www.w3.org/2001/xml-events"
	 xmlns="http://www.w3.org/2000/svg" xmlns:xlink="http://www.w3.org/1999/xlink" x="0px" y="0px" width="14.011px"
	 height="22.003px" viewBox="810.995 342.999 14.011 22.003" enable-background="new 810.995 342.999 14.011 22.003"
	 xml:space="preserve">
<path fill="#FFFCF5" d="M824.702,345.713c-0.545,1.209-1.854,1.804-2.363,1.818c-0.535,0.908-1.071,2.591-0.862,3.949
	c0.23,1.489,0.401,2.7-0.666,4.461c0.259,0.318,0.277,0.782,0.007,1.105c-0.167,0.199-0.403,0.301-0.641,0.301
	c-0.193,0-0.389-0.068-0.548-0.208l-1.708-1.501l0.748,3.828c0,0.332-0.264,0.64-0.636,0.895l0.956,3.548
	c0.124,0.46-0.14,0.935-0.588,1.062c-0.075,0.02-0.15,0.031-0.225,0.031c-0.37,0-0.709-0.251-0.812-0.634l-0.909-3.371
	c-0.167,0.032-0.323,0.05-0.455,0.05c-0.129,0-0.281-0.017-0.443-0.048l-0.907,3.369c-0.104,0.383-0.443,0.634-0.812,0.634
	c-0.074,0-0.15-0.01-0.224-0.031c-0.449-0.127-0.712-0.602-0.588-1.062l0.954-3.542c-0.379-0.255-0.646-0.566-0.646-0.901
	l0.744-3.814l-1.692,1.487c-0.159,0.14-0.354,0.208-0.548,0.208c-0.237,0-0.473-0.101-0.64-0.3
	c-0.304-0.362-0.263-0.907,0.091-1.217l3.466-3.047c0.281-0.393,0.733-0.65,1.246-0.65c0.498,0,0.94,0.243,1.223,0.618l3.438,3.022
	c0.991-1.669,0.825-2.831,0.604-4.258c-0.214-1.386,0.32-3.095,0.866-4.052c-0.344-0.283-0.824-1.786-0.24-3.081
	c0.614-1.361,1.484-1.595,2.261-1.227C824.928,343.522,825.317,344.351,824.702,345.713z M815.86,351.769
	c-0.904,0-1.638-0.751-1.638-1.677c0-0.926,0.733-1.677,1.638-1.677s1.638,0.751,1.638,1.677
	C817.498,351.018,816.765,351.769,815.86,351.769z"/>
</svg>
