<?xml version="1.0" encoding="utf-8"?>
<!-- Generator: Adobe Illustrator 16.0.0, SVG Export Plug-In . SVG Version: 6.00 Build 0)  -->
<!DOCTYPE svg PUBLIC "-//W3C//DTD SVG 1.1//EN" "http://www.w3.org/Graphics/SVG/1.1/DTD/svg11.dtd">
<svg version="1.1" id="Ebene_1" xmlns:ev="http://www.w3.org/2001/xml-events"
	 xmlns="http://www.w3.org/2000/svg" xmlns:xlink="http://www.w3.org/1999/xlink" x="0px" y="0px" width="8.765px" height="9.929px"
	 viewBox="674.044 1480.32 8.765 9.929" enable-background="new 674.044 1480.32 8.765 9.929" xml:space="preserve">
<path fill="#FFFFFF" d="M681.861,1482.744v0.979h-0.312v-0.979h-0.945v-0.325h0.945v-0.979h0.312v0.979h0.947v0.325H681.861z
	 M678.776,1480.776c0.075,0.061,0.165,0.141,0.266,0.24c0.102,0.101,0.199,0.223,0.292,0.365c0.093,0.145,0.173,0.312,0.241,0.503
	c0.067,0.191,0.102,0.409,0.102,0.652c0,0.244-0.03,0.457-0.089,0.64s-0.14,0.345-0.241,0.489s-0.216,0.273-0.343,0.391
	c-0.127,0.118-0.258,0.229-0.393,0.333c-0.085,0.087-0.165,0.18-0.241,0.274c-0.076,0.096-0.114,0.218-0.114,0.366
	c0,0.147,0.038,0.263,0.114,0.345c0.076,0.083,0.147,0.155,0.216,0.216l0.456,0.365c0.136,0.122,0.269,0.244,0.4,0.366
	c0.131,0.121,0.245,0.252,0.343,0.391c0.097,0.139,0.175,0.296,0.233,0.47c0.06,0.175,0.09,0.374,0.09,0.601
	c0,0.304-0.072,0.604-0.217,0.899c-0.144,0.296-0.354,0.56-0.634,0.79s-0.628,0.417-1.047,0.562
	c-0.418,0.144-0.898,0.215-1.439,0.215c-0.456,0-0.856-0.052-1.198-0.156c-0.343-0.104-0.628-0.243-0.857-0.417
	c-0.228-0.174-0.396-0.371-0.507-0.593c-0.11-0.221-0.165-0.454-0.165-0.697c0-0.234,0.07-0.502,0.209-0.802
	c0.14-0.299,0.396-0.562,0.769-0.788c0.193-0.122,0.403-0.219,0.628-0.293c0.224-0.074,0.445-0.133,0.666-0.176
	c0.22-0.044,0.427-0.074,0.62-0.091c0.195-0.019,0.364-0.031,0.509-0.04c-0.094-0.121-0.181-0.249-0.261-0.384
	s-0.121-0.302-0.121-0.502c0-0.112,0.014-0.207,0.038-0.28c0.026-0.073,0.056-0.15,0.09-0.229c-0.068,0.009-0.136,0.016-0.203,0.021
	c-0.068,0.004-0.136,0.006-0.203,0.006c-0.338,0-0.638-0.059-0.901-0.176c-0.262-0.117-0.481-0.271-0.659-0.463
	c-0.178-0.19-0.312-0.41-0.405-0.657c-0.094-0.248-0.141-0.498-0.141-0.75c0-0.304,0.068-0.61,0.203-0.918
	c0.135-0.309,0.338-0.585,0.609-0.828c0.363-0.304,0.747-0.499,1.147-0.586c0.402-0.087,0.776-0.13,1.123-0.13h2.613l-0.812,0.456
	H678.776z M677.406,1486.568c-0.094,0.004-0.203,0.013-0.33,0.025c-0.127,0.014-0.262,0.035-0.406,0.065
	c-0.144,0.03-0.283,0.066-0.419,0.11c-0.067,0.026-0.163,0.067-0.285,0.125c-0.123,0.056-0.243,0.137-0.362,0.24
	c-0.117,0.104-0.222,0.234-0.31,0.392c-0.089,0.155-0.134,0.352-0.134,0.586c0,0.469,0.201,0.852,0.603,1.146
	c0.402,0.295,0.945,0.443,1.63,0.443c0.609,0,1.072-0.132,1.39-0.397s0.476-0.602,0.476-1.01c0-0.166-0.027-0.314-0.082-0.45
	c-0.056-0.135-0.138-0.267-0.248-0.396c-0.109-0.131-0.254-0.267-0.431-0.404c-0.178-0.139-0.385-0.296-0.622-0.47
	c-0.051-0.008-0.095-0.012-0.133-0.012s-0.091,0-0.159,0C677.558,1486.562,677.499,1486.564,677.406,1486.568z M678.459,1482.371
	c-0.068-0.279-0.17-0.54-0.305-0.784c-0.136-0.245-0.303-0.447-0.501-0.608c-0.199-0.161-0.43-0.241-0.691-0.241
	c-0.169,0-0.334,0.039-0.495,0.116c-0.161,0.079-0.292,0.184-0.393,0.314c-0.11,0.14-0.185,0.292-0.223,0.458
	c-0.037,0.166-0.057,0.335-0.057,0.51c0,0.218,0.031,0.462,0.095,0.732c0.063,0.27,0.16,0.522,0.292,0.759
	c0.131,0.235,0.297,0.434,0.494,0.594c0.199,0.162,0.435,0.242,0.704,0.242c0.161,0,0.32-0.034,0.477-0.104
	c0.156-0.07,0.285-0.157,0.387-0.263c0.144-0.147,0.232-0.312,0.267-0.497c0.033-0.183,0.05-0.335,0.05-0.457
	C678.56,1482.907,678.526,1482.65,678.459,1482.371z"/>
</svg>
