<?xml version="1.0" encoding="utf-8"?>
<!-- Generator: Adobe Illustrator 16.0.0, SVG Export Plug-In . SVG Version: 6.00 Build 0)  -->
<!DOCTYPE svg PUBLIC "-//W3C//DTD SVG 1.1//EN" "http://www.w3.org/Graphics/SVG/1.1/DTD/svg11.dtd">
<svg version="1.1" id="Ebene_1" xmlns:ev="http://www.w3.org/2001/xml-events"
	 xmlns="http://www.w3.org/2000/svg" xmlns:xlink="http://www.w3.org/1999/xlink" x="0px" y="0px" width="11.858px"
	 height="9.382px" viewBox="634.361 1479.809 11.858 9.382" enable-background="new 634.361 1479.809 11.858 9.382"
	 xml:space="preserve">
<path fill="#FFFFFF" d="M634.361,1488.152c1.343,0.071,2.485-0.222,3.568-1.019c-1.111-0.119-1.857-0.597-2.283-1.558
	c0.341-0.026,0.644-0.049,0.946-0.073c-1.086-0.447-1.758-1.14-1.835-2.315c0.348,0.086,0.656,0.161,0.966,0.237
	c0.017-0.023,0.033-0.048,0.051-0.071c-0.441-0.397-0.82-0.825-0.941-1.41c-0.117-0.572-0.064-1.114,0.248-1.668
	c1.356,1.475,3.021,2.314,5.062,2.444c0.028-0.377,0.01-0.737,0.09-1.077c0.398-1.686,2.463-2.397,3.881-1.328
	c0.288,0.218,0.524,0.242,0.83,0.125c0.313-0.12,0.63-0.236,0.978-0.367c-0.149,0.498-0.509,0.824-0.893,1.136
	c0.013,0.026,0.024,0.053,0.037,0.079c0.369-0.087,0.739-0.174,1.109-0.261c0.016,0.017,0.03,0.034,0.045,0.051
	c-0.265,0.262-0.505,0.552-0.801,0.776c-0.257,0.195-0.34,0.402-0.354,0.711c-0.123,2.562-1.281,4.58-3.664,5.804
	c-2.232,1.146-4.53,1.064-6.779-0.058C634.556,1488.277,634.496,1488.234,634.361,1488.152z"/>
</svg>
