<?xml version="1.0" encoding="utf-8"?>
<!-- Generator: Adobe Illustrator 16.0.0, SVG Export Plug-In . SVG Version: 6.00 Build 0)  -->
<!DOCTYPE svg PUBLIC "-//W3C//DTD SVG 1.1//EN" "http://www.w3.org/Graphics/SVG/1.1/DTD/svg11.dtd">
<svg version="1.1" id="Ebene_1" xmlns:ev="http://www.w3.org/2001/xml-events"
	 xmlns="http://www.w3.org/2000/svg" xmlns:xlink="http://www.w3.org/1999/xlink" x="0px" y="0px" width="17.994px" height="18px"
	 viewBox="810.003 509 17.994 18" enable-background="new 810.003 509 17.994 18" xml:space="preserve">
<path fill="#FFFCF5" d="M822.725,517.665l5.272-0.425l-5.82,3.051c-0.023-0.115-0.052-0.227-0.085-0.339
	c-0.689-2.442-2.664-4.2-5.012-4.767l2.012-4.02l0.604,2.13l4.668-4.296l-2.848,6.75l5.375-2.412L822.725,517.665z M813.102,515.389
	l1.729-4.594l1.199,4.223c-0.804-0.068-1.63-0.003-2.449,0.223C813.419,515.283,813.258,515.333,813.102,515.389z M820.52,520.359
	c0.79,2.79-0.88,5.676-3.729,6.449c-2.851,0.773-5.801-0.86-6.591-3.649c-0.791-2.789,0.879-5.676,3.729-6.449
	C816.78,515.936,819.73,517.57,820.52,520.359z M819.458,523.435l-0.698,0.281l-0.02,0.645L819.458,523.435z M816.799,519.211
	l1,0.672l0.24-0.688l-1.057-0.765l0.08-0.188l1.525,0.803l-0.327,0.713l0.24,0.574l-0.242,0.598l0.743,0.347l-0.138,0.722
	l0.821,0.265l0.049-1.915l-0.777-1.646l-1.267-1.071l-0.865-0.358l0.29,0.636l-0.535,0.146l-0.132,0.522L816.799,519.211z
	 M815.359,526.312l0.877-0.36l-0.367-0.25l-0.096-0.339l-1.453,0.195l-0.04,0.407L815.359,526.312z M812.747,519.163l-0.669,0.019
	l-0.184-0.355l0.067-0.424l-0.208-0.146l-0.777,1.063l0.76,1.215l-0.473,1.263l0.373,1.319l0.562,0.295l0.187,0.882l0.522,0.305
	l-0.085-0.666l0.877,0.167l0.118,0.415l0.543,0.238l-0.177-0.622l-0.063-0.226l0.747-1.097l0.942-0.7l-1.187-1.263l-0.356,0.868
	l0.156,0.627l-0.63,0.192l-0.178-0.3l-0.702-0.538l-0.331-0.803l0.414-0.295l0.155-0.407L812.747,519.163z M813.162,519.163
	l0.275,0.974l0.578-0.155l-0.275-0.977L813.162,519.163z M825.732,521.784l-3.67,1.886c0.19-0.629,0.289-1.287,0.283-1.961
	L825.732,521.784z"/>
</svg>
