<?xml version="1.0" encoding="utf-8"?>
<!-- Generator: Adobe Illustrator 16.0.0, SVG Export Plug-In . SVG Version: 6.00 Build 0)  -->
<!DOCTYPE svg PUBLIC "-//W3C//DTD SVG 1.1//EN" "http://www.w3.org/Graphics/SVG/1.1/DTD/svg11.dtd">
<svg version="1.1" id="Ebene_1" xmlns:ev="http://www.w3.org/2001/xml-events"
	 xmlns="http://www.w3.org/2000/svg" xmlns:xlink="http://www.w3.org/1999/xlink" x="0px" y="0px" width="11.025px"
	 height="11.006px" viewBox="976.973 186.998 11.025 11.006" enable-background="new 976.973 186.998 11.025 11.006"
	 xml:space="preserve">
<path fill="#FFFCF5" d="M978.654,197.716l7.374-7.361v3.936c0,0.543,0.44,0.984,0.984,0.984s0.985-0.441,0.985-0.984v-6.31l0,0
	c0-0.065-0.007-0.129-0.02-0.193c-0.006-0.026-0.016-0.05-0.021-0.075c-0.011-0.036-0.02-0.074-0.035-0.109
	c-0.011-0.029-0.027-0.054-0.042-0.081c-0.015-0.03-0.028-0.06-0.048-0.088c-0.028-0.042-0.062-0.081-0.097-0.118
	c-0.009-0.01-0.016-0.022-0.025-0.031c-0.011-0.011-0.024-0.018-0.036-0.028c-0.035-0.034-0.072-0.066-0.113-0.093
	c-0.03-0.02-0.062-0.035-0.094-0.051c-0.025-0.014-0.05-0.029-0.077-0.04c-0.038-0.016-0.077-0.026-0.118-0.037
	c-0.021-0.005-0.041-0.014-0.065-0.019c-0.065-0.013-0.13-0.02-0.195-0.019l-6.319-0.001c-0.272,0-0.519,0.11-0.697,0.289
	c-0.178,0.178-0.288,0.424-0.288,0.695c0,0.543,0.44,0.984,0.985,0.983h3.941l-7.372,7.36c-0.384,0.384-0.384,1.007,0,1.391
	C977.646,198.1,978.27,198.1,978.654,197.716z"/>
</svg>
