<?xml version="1.0" encoding="utf-8"?>
<!-- Generator: Adobe Illustrator 16.0.0, SVG Export Plug-In . SVG Version: 6.00 Build 0)  -->
<!DOCTYPE svg PUBLIC "-//W3C//DTD SVG 1.1//EN" "http://www.w3.org/Graphics/SVG/1.1/DTD/svg11.dtd">
<svg version="1.1" id="Ebene_1" xmlns:ev="http://www.w3.org/2001/xml-events"
	 xmlns="http://www.w3.org/2000/svg" xmlns:xlink="http://www.w3.org/1999/xlink" x="0px" y="0px" width="11.753px"
	 height="11.976px" viewBox="910.001 258.998 11.753 11.976" enable-background="new 910.001 258.998 11.753 11.976"
	 xml:space="preserve">
<path fill="#242424" d="M911.794,270.659l7.86-8.009v4.283c0,0.591,0.47,1.07,1.05,1.07s1.05-0.479,1.05-1.07v-6.866l0,0
	c0-0.07-0.007-0.14-0.021-0.21c-0.004-0.028-0.016-0.054-0.022-0.081c-0.011-0.04-0.021-0.08-0.037-0.118
	c-0.012-0.032-0.03-0.06-0.045-0.089c-0.017-0.032-0.031-0.065-0.051-0.096c-0.03-0.046-0.066-0.087-0.104-0.128
	c-0.01-0.011-0.017-0.022-0.026-0.034c-0.012-0.012-0.026-0.02-0.038-0.03c-0.038-0.037-0.078-0.073-0.122-0.103
	c-0.032-0.021-0.066-0.038-0.1-0.055c-0.026-0.015-0.053-0.031-0.082-0.043c-0.039-0.018-0.082-0.029-0.125-0.041
	c-0.023-0.005-0.045-0.015-0.07-0.021c-0.069-0.014-0.139-0.021-0.208-0.02l-6.737-0.001c-0.29,0-0.552,0.12-0.743,0.314
	c-0.189,0.194-0.307,0.462-0.307,0.756c0,0.591,0.47,1.071,1.05,1.07h4.202l-7.858,8.009c-0.41,0.417-0.41,1.095,0,1.512
	C910.719,271.078,911.384,271.078,911.794,270.659z"/>
</svg>
