<?xml version="1.0" encoding="utf-8"?>
<!-- Generator: Adobe Illustrator 16.0.0, SVG Export Plug-In . SVG Version: 6.00 Build 0)  -->
<!DOCTYPE svg PUBLIC "-//W3C//DTD SVG 1.1//EN" "http://www.w3.org/Graphics/SVG/1.1/DTD/svg11.dtd">
<svg version="1.1" id="Ebene_1" xmlns:ev="http://www.w3.org/2001/xml-events"
	 xmlns="http://www.w3.org/2000/svg" xmlns:xlink="http://www.w3.org/1999/xlink" x="0px" y="0px" width="17.004px" height="17px"
	 viewBox="808.998 387 17.004 17" enable-background="new 808.998 387 17.004 17" xml:space="preserve">
<path fill="#FFFCF5" d="M824.172,397.111c-2.689,2.949-5.48,1.274-6.392,0.588c0.702-0.7,1.024-1.081,2.244-1.999
	c1.261,0.471,3.516-0.422,3.516-0.422c-1.517,0.363-2.677,0.157-3.089,0.057c0.088-0.063,1.585-1.052,2.038-1.624
	c1.253,0.035,2.288-0.948,2.288-0.948c-0.033-0.026-0.667,0.417-1.866,0.47c1.241-1.664,1.186-3.196,1.186-3.196
	s-0.459,1.398-1.625,2.931c-0.237-1.088,0.066-1.829,0.032-1.853c0,0-0.812,1.222-0.438,2.345c-0.638,0.665-1.643,1.24-2.014,1.498
	c-0.028-0.07-0.417-1.231-0.04-2.945c0,0-1.021,2.155-0.382,3.273c-0.783,0.55-0.993,0.685-2.3,2.02
	c-2.961-2.024-0.419-5.645,1.798-6.488c2.282-0.868,3.232-0.694,5.323-3.818C826.741,390.097,826.366,394.708,824.172,397.111z
	 M816.467,403.624c-0.171,0.619-0.787,0.288-0.787,0.288c-0.101-0.873-0.226-1.395-0.226-2.44c-0.155-0.374-0.419-1.515-1.101-2.353
	c0.037-0.083,0.073-0.169,0.104-0.265c0.639,0.731,0.987,1.424,1.161,1.857c0.108-1.259,0.557-2.246,1.706-3.401
	c-0.007,0.008,0.447,0.38,0.456,0.389C815.778,399.488,816.119,403.099,816.467,403.624z M814.457,398.854
	c-0.642-0.731-1.576-1.495-2.923-2.057c1.281,0.693,2.187,1.544,2.819,2.322c-0.877,1.954-3.316,0.586-3.913-1.058
	c-0.517-1.419-1.442-2.72-1.442-2.72s6.703-0.558,5.484,3.449C814.475,398.815,814.465,398.832,814.457,398.854z"/>
</svg>
