<?xml version="1.0" encoding="utf-8"?>
<!-- Generator: Adobe Illustrator 16.0.0, SVG Export Plug-In . SVG Version: 6.00 Build 0)  -->
<!DOCTYPE svg PUBLIC "-//W3C//DTD SVG 1.1//EN" "http://www.w3.org/Graphics/SVG/1.1/DTD/svg11.dtd">
<svg version="1.1" id="Ebene_1" xmlns:ev="http://www.w3.org/2001/xml-events"
	 xmlns="http://www.w3.org/2000/svg" xmlns:xlink="http://www.w3.org/1999/xlink" x="0px" y="0px" width="16.023px"
	 height="14.999px" viewBox="809.974 471.001 16.023 14.999" enable-background="new 809.974 471.001 16.023 14.999"
	 xml:space="preserve">
<path fill="#FFFCF5" d="M825.229,475.53l-2.108,0.004l-0.004,1.082l-2.584-1.339v-4.276l5.465,2.834L825.229,475.53z
	 M812.396,471.869v-0.811l8.116,4.233l-0.259,0.638L812.396,471.869z M819.69,478.402h-1.119v1.217h-1.118v-1.217h-1.12v-1.219h1.12
	v-1.218h1.118v1.218h1.119V478.402z M815.819,480.177h4.431v-4.222l2.874,1.529v2.492c0,0.226,0.049,0.7-0.3,1.102v3.932
	c0,0.548-0.407,0.99-0.91,0.99c-0.502,0-0.907-0.442-0.907-0.99v-3.828l-0.757,0.001v-0.005h-4.431v0.008h-0.007l1.74,3.318
	c0.258,0.468,0.117,1.074-0.312,1.356c-0.432,0.278-0.989,0.126-1.247-0.345l-2.117-4.037l0.001,3.531
	c0,0.548-0.408,0.989-0.908,0.989c-0.503,0-0.909-0.441-0.909-0.989v-7.604l-1.723-1.029c-0.252-0.155-0.469-0.552-0.308-0.885
	c0.162-0.332,0.574-0.433,0.826-0.273l1.268,0.739l3.696-0.001V480.177z"/>
</svg>
