<?xml version="1.0" encoding="utf-8"?>
<!-- Generator: Adobe Illustrator 16.0.0, SVG Export Plug-In . SVG Version: 6.00 Build 0)  -->
<!DOCTYPE svg PUBLIC "-//W3C//DTD SVG 1.1//EN" "http://www.w3.org/Graphics/SVG/1.1/DTD/svg11.dtd">
<svg version="1.1" id="Ebene_1" xmlns:ev="http://www.w3.org/2001/xml-events"
	 xmlns="http://www.w3.org/2000/svg" xmlns:xlink="http://www.w3.org/1999/xlink" x="0px" y="0px" width="21.996px"
	 height="33.003px" viewBox="598.002 23.999 21.996 33.003" enable-background="new 598.002 23.999 21.996 33.003"
	 xml:space="preserve">
<path fill="#FFFCF5" d="M619.049,30.594c-0.633-1.475-1.471-2.704-2.513-3.687c-1.042-0.984-2.222-1.714-3.54-2.192
	c-1.319-0.477-2.651-0.716-3.996-0.716s-2.677,0.239-3.996,0.716c-1.319,0.478-2.492,1.208-3.521,2.192
	c-1.028,0.983-1.866,2.212-2.513,3.687c-0.646,1.474-0.969,3.209-0.969,5.202v21.206h3.244v-9.548
	c3.642-1.247,9.86-3.85,12.253-7.72c0,0-6.776,3.335-12.253,1.87v-3.432v-1.763v-0.613c0-1.475,0.217-2.737,0.652-3.789
	c0.436-1.051,1.016-1.925,1.74-2.621c0.726-0.697,1.551-1.21,2.474-1.537c0.923-0.328,1.885-0.491,2.888-0.491
	c0.975,0,1.932,0.163,2.868,0.491c0.936,0.327,1.767,0.84,2.493,1.537c0.724,0.696,1.305,1.576,1.739,2.641
	c0.436,1.065,0.653,2.335,0.653,3.81v0.572v1.763v5.366v0.699v12.765h3.244V35.796C619.998,33.803,619.681,32.068,619.049,30.594z"
	/>
</svg>
