<?xml version="1.0" encoding="utf-8"?>
<!-- Generator: Adobe Illustrator 16.0.0, SVG Export Plug-In . SVG Version: 6.00 Build 0)  -->
<!DOCTYPE svg PUBLIC "-//W3C//DTD SVG 1.1//EN" "http://www.w3.org/Graphics/SVG/1.1/DTD/svg11.dtd">
<svg version="1.1" id="Ebene_1" xmlns:ev="http://www.w3.org/2001/xml-events"
	 xmlns="http://www.w3.org/2000/svg" xmlns:xlink="http://www.w3.org/1999/xlink" x="0px" y="0px" width="18px" height="13.995px"
	 viewBox="809 267.003 18 13.995" enable-background="new 809 267.003 18 13.995" xml:space="preserve">
<path fill="#FFFCF5" d="M827,277.567h-9l2.5,3.431h-5l2.5-3.431h-9v-1.059h2.186l-0.341-3.818c0,0-0.575-0.037-0.575-0.69v-2.219
	c0-0.397,0.25-0.926,0.875-0.926h0.813h0.813c0.625,0,0.875,0.529,0.875,0.926V272c0,0.653-0.574,0.69-0.574,0.69l-0.341,3.818
	h10.579l-0.341-3.818c0,0-0.575-0.037-0.575-0.69v-2.219c0-0.397,0.252-0.926,0.875-0.926h0.813h0.813
	c0.625,0,0.875,0.529,0.875,0.926V272c0,0.653-0.574,0.691-0.574,0.691l-0.342,3.817H827V277.567z M824.083,268.59
	c-0.414,0-0.75-0.355-0.75-0.793c0-0.439,0.336-0.794,0.75-0.794c0.415,0,0.75,0.355,0.75,0.794
	C824.833,268.235,824.498,268.59,824.083,268.59z M811.958,268.59c-0.414,0-0.75-0.355-0.75-0.793c0-0.439,0.336-0.794,0.75-0.794
	c0.415,0,0.75,0.355,0.75,0.794C812.708,268.235,812.373,268.59,811.958,268.59z"/>
</svg>
