<?xml version="1.0" encoding="utf-8"?>
<!-- Generator: Adobe Illustrator 16.0.0, SVG Export Plug-In . SVG Version: 6.00 Build 0)  -->
<!DOCTYPE svg PUBLIC "-//W3C//DTD SVG 1.1//EN" "http://www.w3.org/Graphics/SVG/1.1/DTD/svg11.dtd">
<svg version="1.1" id="Ebene_1" xmlns:ev="http://www.w3.org/2001/xml-events"
	 xmlns="http://www.w3.org/2000/svg" xmlns:xlink="http://www.w3.org/1999/xlink" x="0px" y="0px" width="14px" height="13.004px"
	 viewBox="811 226.998 14 13.004" enable-background="new 811 226.998 14 13.004" xml:space="preserve">
<path fill="#FFFCF5" d="M823.693,234.41c-0.502,0.53-1.081,1.142-1.674,1.769l-3.413,3.581c-0.148,0.157-0.347,0.242-0.56,0.242
	c-0.227,0-0.441-0.096-0.604-0.269c-0.159-0.169-0.249-0.39-0.253-0.624c-0.005-0.229,0.075-0.445,0.227-0.606l3.32-3.514
	l-0.311-0.328l-3.319,3.514c-0.148,0.155-0.349,0.241-0.56,0.241c-0.225,0-0.44-0.095-0.604-0.269
	c-0.164-0.173-0.254-0.399-0.254-0.639c0-0.225,0.079-0.435,0.228-0.591l3.32-3.514l-0.354-0.374l-3.322,3.513
	c-0.147,0.156-0.346,0.241-0.558,0.241c-0.227,0-0.442-0.096-0.604-0.269c-0.159-0.168-0.248-0.39-0.254-0.624
	c-0.006-0.229,0.076-0.445,0.228-0.606l3.161-3.344l0.096,0.102c0.255,0.269,0.601,0.416,0.969,0.416
	c0.404,0,0.808-0.18,1.107-0.495c0.592-0.629,0.626-1.615,0.075-2.198l-1.539-1.629c0.746-0.735,1.714-1.137,2.738-1.137
	c1.069,0,2.077,0.44,2.839,1.239c0.759,0.799,1.179,1.854,1.18,2.967C825.002,232.378,824.538,233.515,823.693,234.41z
	 M819.452,231.693c-0.23,0.242-0.54,0.383-0.853,0.383c-0.273,0-0.527-0.108-0.715-0.304l-2.822-2.989l-0.257,0.271l0.977,1.031
	l-3.161,3.344c-0.093,0.099-0.168,0.213-0.225,0.339c-0.088,0.196-0.123,0.411-0.105,0.626c-0.835-0.892-1.293-2.024-1.291-3.189
	c0.001-1.113,0.421-2.168,1.18-2.967c0.761-0.799,1.769-1.24,2.839-1.24c0.634,0,1.236,0.151,1.794,0.446
	c0.227,0.118,0.448,0.264,0.656,0.436l0.1,0.082l1.96,2.072C819.938,230.47,819.904,231.214,819.452,231.693z M816.036,230.354
	l1.188,1.258l-3.16,3.344c-0.148,0.154-0.348,0.241-0.559,0.241c-0.226,0-0.44-0.095-0.604-0.27
	c-0.164-0.173-0.255-0.399-0.255-0.639c0-0.225,0.08-0.435,0.229-0.591L816.036,230.354z"/>
</svg>
