<?xml version="1.0" encoding="utf-8"?>
<!-- Generator: Adobe Illustrator 16.0.0, SVG Export Plug-In . SVG Version: 6.00 Build 0)  -->
<!DOCTYPE svg PUBLIC "-//W3C//DTD SVG 1.1//EN" "http://www.w3.org/Graphics/SVG/1.1/DTD/svg11.dtd">
<svg version="1.1" id="Ebene_1" xmlns:ev="http://www.w3.org/2001/xml-events"
	 xmlns="http://www.w3.org/2000/svg" xmlns:xlink="http://www.w3.org/1999/xlink" x="0px" y="0px" width="17px" height="10.999px"
	 viewBox="442 1126.309 17 10.999" enable-background="new 442 1126.309 17 10.999" xml:space="preserve">
<path fill="#FFFCF5" d="M458.443,1126.309h-15.887c-0.348,0-0.557,0.221-0.557,0.586v9.826c0,0.367,0.209,0.587,0.557,0.587h15.887
	c0.348,0,0.557-0.22,0.557-0.587v-9.826C459,1126.529,458.791,1126.309,458.443,1126.309z M457.597,1127.189l-7.235,6.012
	l-7.11-6.012H457.597z M457.885,1136.428h-14.77c-0.174,0-0.279-0.109-0.279-0.294v-8.19l7.525,6.285l7.803-6.519v8.424
	C458.164,1136.318,458.06,1136.428,457.885,1136.428z"/>
</svg>
