<?xml version="1.0" encoding="utf-8"?>
<!-- Generator: Adobe Illustrator 16.0.0, SVG Export Plug-In . SVG Version: 6.00 Build 0)  -->
<!DOCTYPE svg PUBLIC "-//W3C//DTD SVG 1.1//EN" "http://www.w3.org/Graphics/SVG/1.1/DTD/svg11.dtd">
<svg version="1.1" id="Ebene_1" xmlns:ev="http://www.w3.org/2001/xml-events"
	 xmlns="http://www.w3.org/2000/svg" xmlns:xlink="http://www.w3.org/1999/xlink" x="0px" y="0px" width="22.781px"
	 height="22.992px" viewBox="1068.219 29.004 22.781 22.992" enable-background="new 1068.219 29.004 22.781 22.992"
	 xml:space="preserve">
<path fill="#FFFCF5" d="M1090.52,49.791l-6.692-6.751c1.101-1.468,1.755-3.296,1.755-5.279c0-4.836-3.887-8.757-8.682-8.757
	s-8.682,3.921-8.682,8.757c0,4.836,3.887,8.756,8.682,8.756c1.959,0,3.766-0.654,5.218-1.758l6.696,6.753
	c0.565,0.57,1.405,0.648,1.877,0.173S1091.086,50.362,1090.52,49.791z M1076.9,44.348c-3.605,0-6.529-2.95-6.529-6.587
	c0-3.637,2.924-6.586,6.529-6.586s6.529,2.949,6.529,6.586C1083.43,41.398,1080.506,44.348,1076.9,44.348z"/>
</svg>
