<?xml version="1.0" encoding="utf-8"?>
<!-- Generator: Adobe Illustrator 16.0.0, SVG Export Plug-In . SVG Version: 6.00 Build 0)  -->
<!DOCTYPE svg PUBLIC "-//W3C//DTD SVG 1.1//EN" "http://www.w3.org/Graphics/SVG/1.1/DTD/svg11.dtd">
<svg version="1.1" id="Ebene_1" xmlns:ev="http://www.w3.org/2001/xml-events"
	 xmlns="http://www.w3.org/2000/svg" xmlns:xlink="http://www.w3.org/1999/xlink" x="0px" y="0px" width="21.029px"
	 height="19.462px" viewBox="989 30.769 21.029 19.462" enable-background="new 989 30.769 21.029 19.462" xml:space="preserve">
<path fill="#FFFCF5" d="M1010.029,33.101c0,0.672-0.904,1.217-2.02,1.217h-16.99c-1.115,0-2.02-0.545-2.02-1.217v-1.115
	c0-0.672,0.904-1.217,2.02-1.217h16.99c1.115,0,2.02,0.545,2.02,1.217V33.101z"/>
<path fill="#FFFCF5" d="M1010.029,41.058c0,0.672-0.904,1.216-2.02,1.216h-16.99c-1.115,0-2.02-0.544-2.02-1.216v-1.116
	c0-0.671,0.904-1.216,2.02-1.216h16.99c1.115,0,2.02,0.545,2.02,1.216V41.058z"/>
<path fill="#FFFCF5" d="M1010.029,49.014c0,0.672-0.904,1.217-2.02,1.217h-16.99c-1.115,0-2.02-0.545-2.02-1.217v-1.115
	c0-0.672,0.904-1.217,2.02-1.217h16.99c1.115,0,2.02,0.545,2.02,1.217V49.014z"/>
</svg>
