<?xml version="1.0" encoding="utf-8"?>
<!-- Generator: Adobe Illustrator 16.0.0, SVG Export Plug-In . SVG Version: 6.00 Build 0)  -->
<!DOCTYPE svg PUBLIC "-//W3C//DTD SVG 1.1//EN" "http://www.w3.org/Graphics/SVG/1.1/DTD/svg11.dtd">
<svg version="1.1" id="Ebene_1" xmlns:ev="http://www.w3.org/2001/xml-events"
	 xmlns="http://www.w3.org/2000/svg" xmlns:xlink="http://www.w3.org/1999/xlink" x="0px" y="0px" width="25px" height="25.004px"
	 viewBox="908 27.998 25 25.004" enable-background="new 908 27.998 25 25.004" xml:space="preserve">
<path fill="#FFFFFF" d="M920.712,31.45c-1.214,0.802-2.016,2.115-2.044,3.613c-0.02,1.078,0.363,2.073,1.02,2.862
	c-0.198,0.118-0.388,0.248-0.574,0.388c-0.536-0.195-1.137-0.217-1.668-0.053c-0.86,0.264-1.465,0.933-1.573,1.644
	c-0.079-0.715-0.661-1.406-1.511-1.701c-1.396-0.487-3.34,0.323-3.276,2.271c0.082,1.609,3.101,4.098,4.412,5.251
	c-0.021,1.479,0.283,2.613,0.837,3.481c-0.21,0.001-0.422,0-0.634-0.003c-4.314-0.08-7.791-1.226-7.698-6.155
	c0.062-3.368,1.75-6.271,4.188-7.747c-0.653-0.79-1.037-1.784-1.018-2.862c0.047-2.503,2.25-4.489,4.927-4.44
	C918.342,28.041,920.201,29.502,920.712,31.45z M928.698,38.271c2.564,1.62,4.302,4.743,4.302,8.33c0,5.249-3.722,6.401-8.314,6.401
	c-4.595,0-8.319-1.152-8.319-6.401c0-3.587,1.737-6.71,4.305-8.33c-0.714-0.827-1.142-1.879-1.142-3.027
	c0-2.664,2.305-4.823,5.156-4.823c2.847,0,5.154,2.159,5.154,4.823C929.84,36.392,929.412,37.444,928.698,38.271z M925.104,49.519
	c1.146-1.028,4.832-3.955,4.963-5.816c0.106-2.072-1.948-2.973-3.442-2.482c-0.916,0.301-1.556,1.034-1.642,1.805
	c-0.09-0.771-0.727-1.504-1.644-1.805c-1.496-0.491-3.549,0.41-3.442,2.482c0.132,1.861,3.973,4.759,5.127,5.786"/>
</svg>
