<?xml version="1.0" encoding="utf-8"?>
<!-- Generator: Adobe Illustrator 16.0.0, SVG Export Plug-In . SVG Version: 6.00 Build 0)  -->
<!DOCTYPE svg PUBLIC "-//W3C//DTD SVG 1.1//EN" "http://www.w3.org/Graphics/SVG/1.1/DTD/svg11.dtd">
<svg version="1.1" id="Ebene_1" xmlns:ev="http://www.w3.org/2001/xml-events"
	 xmlns="http://www.w3.org/2000/svg" xmlns:xlink="http://www.w3.org/1999/xlink" x="0px" y="0px" width="32px" height="32px"
	 viewBox="1068 96 32 32" enable-background="new 1068 96 32 32" xml:space="preserve">
<path fill="#D8D8A6" d="M1073.953,96h20.094c3.288,0,5.953,2.666,5.953,5.953v20.094c0,3.288-2.665,5.953-5.953,5.953h-20.094
	c-3.287,0-5.953-2.665-5.953-5.953v-20.094C1068,98.666,1070.666,96,1073.953,96z"/>
<path fill="#FEFEC8" d="M1090.971,106.863l-5.136,5.137l5.136,5.137c0.235,0.234,0.38,0.559,0.38,0.917
	c0,0.716-0.581,1.297-1.297,1.297c-0.357,0-0.683-0.145-0.918-0.38l-5.136-5.136l-5.137,5.136c-0.235,0.235-0.56,0.38-0.917,0.38
	c-0.718,0-1.297-0.581-1.297-1.297c0-0.358,0.145-0.683,0.379-0.917l5.137-5.137l-5.137-5.137c-0.234-0.235-0.379-0.559-0.379-0.917
	c0-0.717,0.579-1.297,1.297-1.297c0.357,0,0.682,0.145,0.917,0.38l5.137,5.136l5.136-5.136c0.235-0.235,0.561-0.38,0.918-0.38
	c0.716,0,1.297,0.58,1.297,1.297C1091.351,106.304,1091.206,106.628,1090.971,106.863"/>
</svg>
