<?xml version="1.0" encoding="utf-8"?>
<!-- Generator: Adobe Illustrator 16.0.0, SVG Export Plug-In . SVG Version: 6.00 Build 0)  -->
<!DOCTYPE svg PUBLIC "-//W3C//DTD SVG 1.1//EN" "http://www.w3.org/Graphics/SVG/1.1/DTD/svg11.dtd">
<svg version="1.1" id="Ebene_1" xmlns:ev="http://www.w3.org/2001/xml-events"
	 xmlns="http://www.w3.org/2000/svg" xmlns:xlink="http://www.w3.org/1999/xlink" x="0px" y="0px" width="37.013px"
	 height="37.027px" viewBox="159.001 139.994 37.013 37.027" enable-background="new 159.001 139.994 37.013 37.027"
	 xml:space="preserve">
<path fill="#FFFFFF" d="M195.234,173.47l-10.875-10.873c1.789-2.363,2.851-5.307,2.851-8.501c0-7.788-6.314-14.102-14.105-14.102
	c-7.79,0-14.104,6.314-14.104,14.102c0,7.789,6.314,14.102,14.104,14.102c3.183,0,6.119-1.054,8.479-2.832l10.878,10.876
	c0.92,0.919,2.285,1.043,3.05,0.278C196.279,175.756,196.153,174.39,195.234,173.47z M173.105,164.704
	c-5.858,0-10.608-4.75-10.608-10.607c0-5.858,4.75-10.607,10.608-10.607c5.859,0,10.609,4.749,10.609,10.607
	C183.714,159.954,178.964,164.704,173.105,164.704z"/>
</svg>
