<?xml version="1.0" encoding="utf-8"?>
<!-- Generator: Adobe Illustrator 16.0.0, SVG Export Plug-In . SVG Version: 6.00 Build 0)  -->
<!DOCTYPE svg PUBLIC "-//W3C//DTD SVG 1.1//EN" "http://www.w3.org/Graphics/SVG/1.1/DTD/svg11.dtd">
<svg version="1.1" id="Ebene_1" xmlns:ev="http://www.w3.org/2001/xml-events"
	 xmlns="http://www.w3.org/2000/svg" xmlns:xlink="http://www.w3.org/1999/xlink" x="0px" y="0px" width="15px" height="15px"
	 viewBox="154 114 15 15" enable-background="new 154 114 15 15" xml:space="preserve">
<path fill="#FFFCF5" d="M169,122.674v-2.501l-1.711-0.508c-0.113-0.369-0.246-0.723-0.424-1.058l0.879-1.59l-1.765-1.768
	l-1.588,0.871c-0.335-0.178-0.688-0.296-1.057-0.409L162.827,114h-2.501l-0.508,1.711c-0.369,0.113-0.723,0.246-1.057,0.424
	l-1.591-0.879l-1.768,1.764l0.871,1.589c-0.178,0.335-0.373,0.688-0.485,1.057L154,120.173v2.501l1.788,0.508
	c0.112,0.369,0.283,0.723,0.462,1.058l-0.86,1.59l1.774,1.768l1.594-0.871c0.334,0.178,0.69,0.373,1.058,0.486l0.51,1.787h2.501
	l0.508-1.787c0.369-0.113,0.723-0.284,1.058-0.463l1.59,0.86l1.768-1.774l-0.871-1.594c0.178-0.334,0.296-0.69,0.409-1.059
	L169,122.674z M161.577,126.072c-2.568,0-4.649-2.081-4.649-4.648c0-2.568,2.081-4.649,4.649-4.649c2.567,0,4.649,2.081,4.649,4.649
	C166.226,123.991,164.144,126.072,161.577,126.072z"/>
</svg>
