<?xml version="1.0" encoding="utf-8"?>
<!-- Generator: Adobe Illustrator 16.0.0, SVG Export Plug-In . SVG Version: 6.00 Build 0)  -->
<!DOCTYPE svg PUBLIC "-//W3C//DTD SVG 1.1//EN" "http://www.w3.org/Graphics/SVG/1.1/DTD/svg11.dtd">
<svg version="1.1" id="Ebene_1" xmlns:ev="http://www.w3.org/2001/xml-events"
	 xmlns="http://www.w3.org/2000/svg" xmlns:xlink="http://www.w3.org/1999/xlink" x="0px" y="0px" width="10.998px" height="18px"
	 viewBox="156.001 234 10.998 18" enable-background="new 156.001 234 10.998 18" xml:space="preserve">
<path fill="#FFFCF5" d="M164.225,239.913l-0.017-3.04c0-1.584-1.279-2.873-2.85-2.873c-1.571,0-2.849,1.289-2.849,2.873v3.04h-2.508
	V252h10.998v-12.087H164.225z M161.358,234.643c1.221,0,2.213,1,2.213,2.23v3.04h-4.408l-0.017-3.04
	C159.146,235.643,160.138,234.643,161.358,234.643z M164.061,245.909c-0.252,0-0.478-0.11-0.634-0.284l-1.073-1.203v5.217
	c0,0.476-0.382,0.861-0.854,0.861s-0.854-0.385-0.854-0.861v-5.217l-1.073,1.203c-0.156,0.174-0.382,0.284-0.634,0.284
	c-0.472,0-0.854-0.385-0.854-0.86c0-0.222,0.083-0.424,0.219-0.576l2.561-2.87c0.157-0.175,0.383-0.285,0.635-0.285
	s0.478,0.11,0.635,0.285l2.561,2.87c0.136,0.152,0.219,0.354,0.219,0.576C164.915,245.524,164.533,245.909,164.061,245.909z"/>
</svg>
