<?xml version="1.0" encoding="utf-8"?>
<!-- Generator: Adobe Illustrator 16.0.0, SVG Export Plug-In . SVG Version: 6.00 Build 0)  -->
<!DOCTYPE svg PUBLIC "-//W3C//DTD SVG 1.1//EN" "http://www.w3.org/Graphics/SVG/1.1/DTD/svg11.dtd">
<svg version="1.1" id="Ebene_1" xmlns:ev="http://www.w3.org/2001/xml-events"
	 xmlns="http://www.w3.org/2000/svg" xmlns:xlink="http://www.w3.org/1999/xlink" x="0px" y="0px" width="10.998px" height="17px"
	 viewBox="156.001 193 10.998 17" enable-background="new 156.001 193 10.998 17" xml:space="preserve">
<path fill="#FFFCF5" d="M164.225,198.584l-0.017-2.87c0-1.497-1.279-2.714-2.85-2.714c-1.571,0-2.849,1.217-2.849,2.714v2.87h-2.508
	V210h10.998v-11.416H164.225z M161.358,193.607c1.221,0,2.213,0.945,2.213,2.107v2.87h-4.408l-0.017-2.87
	C159.146,194.552,160.138,193.607,161.358,193.607z M164.696,205.604l-2.561,2.71c-0.157,0.166-0.383,0.269-0.635,0.269
	s-0.478-0.103-0.635-0.269l-2.561-2.71c-0.136-0.144-0.219-0.335-0.219-0.544c0-0.449,0.382-0.813,0.854-0.813
	c0.252,0,0.478,0.104,0.635,0.269l1.072,1.136v-4.927c0-0.45,0.382-0.814,0.854-0.814s0.854,0.364,0.854,0.814v4.927l1.073-1.136
	c0.156-0.165,0.383-0.269,0.634-0.269c0.472,0,0.854,0.364,0.854,0.813C164.915,205.269,164.832,205.46,164.696,205.604z"/>
</svg>
